# File created by Blade
# Date/Time:  Wed Apr 08 17:12:12 2015
# Frame Rate: 120.000 fps
#------------------------------------------------------
:FULLY-SPECIFIED
:DEGREES
987
root 3.115771 39.484666 4.590414 78.307151 -41.906473 -109.164888
Spine 79.335663 -26.243063 3.816698
Head -18.044949 14.650695 18.914401
LeftShoulder -5.324166 12.615048 28.086792
LeftArm 14.391430 25.302272 -76.312768
LeftForeArm 27.952587 -0.000000 36.603807
LeftHand -10.307861 -0.000000 -14.389786
LeftHandThumb1 -26.253704 0.000000 33.147579
RightShoulder -27.078423 -46.734021 12.694896
RightArm 46.097934 0.979826 83.323691
RightForeArm 25.608925 -0.000000 23.743834
RightHand 4.643702 -0.000000 11.833237
RightHandThumb1 -24.326973 -0.000000 -32.862282
LeftUpLeg 35.650168 2.666441 52.741383
LeftLeg 3.620578 -0.000000 -0.000000
LeftFoot -6.906081 3.022761 -16.754071
LeftToeBase 2.490026 -0.000000 -0.000000
RightUpLeg 37.879107 7.829036 -44.336867
RightLeg 128.880019 -0.000000 -0.000000
RightFoot 18.455286 10.337658 3.352397
RightToeBase -3.118903 -0.000000 0.000000
988
root 3.125130 39.473807 4.591795 78.773665 -41.923650 -109.418255
Spine 79.094819 -26.086229 3.913726
Head -18.041349 14.701700 18.882773
LeftShoulder -5.327535 12.608200 28.049960
LeftArm 14.384416 25.335856 -76.289635
LeftForeArm 27.972224 -0.000000 36.712918
LeftHand -10.302468 -0.000000 -14.496334
LeftHandThumb1 -26.253704 0.000000 33.147579
RightShoulder -27.133152 -46.762687 12.725231
RightArm 45.991989 0.990927 83.417057
RightForeArm 25.645157 0.000000 23.765509
RightHand 4.580484 0.000000 11.901308
RightHandThumb1 -24.326973 -0.000000 -32.862282
LeftUpLeg 35.580700 3.039394 52.780546
LeftLeg 3.706756 -0.000000 -0.000000
LeftFoot -6.986554 2.965420 -16.798104
LeftToeBase 2.532813 -0.000000 -0.000000
RightUpLeg 37.800273 7.965247 -44.106519
RightLeg 129.075439 -0.000000 -0.000000
RightFoot 18.334730 10.401471 3.363311
RightToeBase -2.787403 -0.000000 0.000000
989
root 3.133040 39.464662 4.592211 79.191875 -41.926627 -109.653657
Spine 78.896607 -25.949785 3.982185
Head -18.012214 14.740483 18.844135
LeftShoulder -5.352008 12.596600 28.021769
LeftArm 14.394656 25.373453 -76.277581
LeftForeArm 27.930225 -0.000000 36.717162
LeftHand -10.229002 -0.000000 -14.628074
LeftHandThumb1 -26.253704 0.000000 33.147579
RightShoulder -27.144427 -46.795296 12.705219
RightArm 45.882626 0.957254 83.449730
RightForeArm 25.738723 -0.000000 23.762461
RightHand 4.538795 -0.000000 12.067385
RightHandThumb1 -24.326973 -0.000000 -32.862282
LeftUpLeg 35.527225 3.297806 52.773501
LeftLeg 3.780633 -0.000000 -0.000000
LeftFoot -7.067868 3.004853 -16.860700
LeftToeBase 2.481239 -0.000000 -0.000000
RightUpLeg 37.769685 8.088158 -43.877341
RightLeg 129.252369 -0.000000 -0.000000
RightFoot 18.219975 10.399112 3.135397
RightToeBase -2.976954 -0.000000 0.000000
990
root 3.140252 39.456577 4.591462 79.598647 -41.911299 -109.889116
Spine 78.718333 -25.818955 4.049526
Head -17.999796 14.787904 18.792188
LeftShoulder -5.383789 12.598901 27.981969
LeftArm 14.388596 25.369264 -76.280514
LeftForeArm 27.892410 -0.000000 36.739403
LeftHand -10.183954 -0.000000 -14.685734
LeftHandThumb1 -26.253704 0.000000 33.147579
RightShoulder -27.164671 -46.829237 12.694519
RightArm 45.791508 0.904279 83.439434
RightForeArm 25.859173 0.000000 23.756658
RightHand 4.414914 -0.000000 12.224406
RightHandThumb1 -24.326973 -0.000000 -32.862282
LeftUpLeg 35.475670 3.535077 52.773738
LeftLeg 3.859407 -0.000000 -0.000000
LeftFoot -7.155181 3.063987 -16.896611
LeftToeBase 2.451033 -0.000000 -0.000000
RightUpLeg 37.750642 8.237738 -43.599020
RightLeg 129.437051 -0.000000 -0.000000
RightFoot 18.139833 10.410978 3.197134
RightToeBase -3.435674 -0.000000 0.000000
991
root 3.150084 39.447023 4.590507 80.058550 -41.897486 -110.152144
Spine 78.514879 -25.665195 4.120772
Head -17.987778 14.861278 18.731067
LeftShoulder -5.413618 12.659869 27.935120
LeftArm 14.413488 25.314949 -76.282424
LeftForeArm 27.858883 -0.000000 36.767265
LeftHand -10.175585 -0.000000 -14.664277
LeftHandThumb1 -26.253704 0.000000 33.147579
RightShoulder -27.179649 -46.853761 12.690018
RightArm 45.709005 0.823109 83.351106
RightForeArm 26.026831 -0.000000 23.752356
RightHand 4.362101 0.000000 12.410891
RightHandThumb1 -24.326973 -0.000000 -32.862282
LeftUpLeg 35.411371 3.803773 52.763167
LeftLeg 3.947425 -0.000000 -0.000000
LeftFoot -7.241284 3.151347 -16.886598
LeftToeBase 2.357046 -0.000000 -0.000000
RightUpLeg 37.683190 8.382139 -43.307301
RightLeg 129.623712 -0.000000 -0.000000
RightFoot 18.106339 10.444244 3.172476
RightToeBase -3.937685 -0.000000 0.000000
